Coordinates
version=1
nRows=30
nColumns=38
inDegrees=no

Units are S.I. units (second, meters, Newtons, ...)
If the header above contains a line with 'inDegrees', this indicates whether rotational values are in degrees (yes) or radians (no).

endheader
time	pelvis_tilt	pelvis_list	pelvis_rotation	pelvis_tx	pelvis_ty	pelvis_tz	hip_flexion_r	hip_adduction_r	hip_rotation_r	knee_angle_r	ankle_angle_r	subtalar_angle_r	mtp_angle_r	hip_flexion_l	hip_adduction_l	hip_rotation_l	knee_angle_l	ankle_angle_l	subtalar_angle_l	mtp_angle_l	lumbar_extension	lumbar_bending	lumbar_rotation	arm_flex_r	arm_add_r	arm_rot_r	elbow_flex_r	pro_sup_r	wrist_flex_r	wrist_dev_r	arm_flex_l	arm_add_l	arm_rot_l	elbow_flex_l	pro_sup_l	wrist_flex_l	wrist_dev_l
0	-0.512718	1.27782	-0.980429	0.862193	2.01758	0.965899	0.243468	0.0622994	-0.502812	0.183539	0.151277	0	0	-0.485097	-0.144215	-0.241392	0.0910318	0.253258	0	0	-0.476467	0.256478	-0.09136	0.427995	-0.419079	0.0530898	1.10642	0.978352	0	0	0.401811	-0.254043	-0.256964	1.18192	0.621159	0	0
0.01	-0.504004	1.28235	-0.985876	0.860942	2.00521	0.963873	0.236367	0.0667529	-0.496666	0.135406	0.142803	0	0	-0.486836	-0.146919	-0.253142	0.112299	0.268064	0	0	-0.470732	0.252502	-0.0952801	0.429736	-0.415822	0.0543701	1.09993	0.983119	0	0	0.404007	-0.255762	-0.253355	1.17737	0.621159	0	0
0.02	-0.498057	1.28568	-0.988489	0.859699	1.99194	0.961892	0.226217	0.0722581	-0.486062	0.0914274	0.133894	0	0	-0.491945	-0.150403	-0.261212	0.129528	0.279213	0	0	-0.464755	0.250422	-0.0986425	0.428714	-0.413925	0.0541807	1.09685	0.989264	0	0	0.404131	-0.256874	-0.250693	1.17332	0.621159	0	0
0.03	-0.490863	1.28831	-0.99241	0.85844	1.97824	0.959973	0.214816	0.0765036	-0.471411	0.0562079	0.1267	0	0	-0.499166	-0.153419	-0.264807	0.144444	0.286624	0	0	-0.459224	0.248605	-0.101415	0.426298	-0.412732	0.0531912	1.09469	0.993171	0	0	0.403666	-0.257436	-0.248672	1.16898	0.621159	0	0
0.04	-0.488806	1.29227	-0.991926	0.857299	1.96409	0.95803	0.207729	0.0784195	-0.456134	0.0372116	0.123564	0	0	-0.503837	-0.156887	-0.267566	0.16148	0.292915	0	0	-0.449527	0.248277	-0.0992811	0.417918	-0.414768	0.0490883	1.09506	0.985429	0	0	0.374494	-0.273282	-0.0868158	1.0848	0.621159	0	0
0.05	-0.474016	1.28974	-1.00205	0.856177	1.95023	0.956416	0.197162	0.0775954	-0.446953	0.0384757	0.125873	0	0	-0.514266	-0.162626	-0.269181	0.181807	0.298434	0	0	-0.452283	0.247721	-0.103485	0.417562	-0.413254	0.0500438	1.09491	0.982082	0	0	0.401996	-0.259887	-0.221784	1.15634	0.621159	0	0
0.06	-0.483198	1.28929	-0.989097	0.855593	1.93546	0.954459	0.195326	0.0783233	-0.440479	0.0580797	0.130429	0	0	-0.523599	-0.171805	-0.27429	0.196427	0.305816	0	0	-0.444838	0.25493	-0.102792	0.412333	-0.417386	0.0496492	1.09575	0.978974	0	0	0.370317	-0.266825	-0.0952853	1.08146	0.605889	0	0
0.07	-0.480476	1.2887	-0.995247	0.853219	1.92128	0.953322	0.193833	0.0813545	-0.423546	0.0854102	0.13586	0	0	-0.523599	-0.172434	-0.287664	0.233667	0.289176	0	0	-0.447077	0.252885	-0.0959065	0.408499	-0.418	0.0479162	1.09832	0.965	0	0	0.36867	-0.271213	-0.073698	1.08901	0.709422	0	0
0.08	-0.483403	1.28432	-0.971431	0.854892	1.90675	0.95084	0.191522	0.0754541	-0.437627	0.126191	0.146949	0	0	-0.523599	-0.192711	-0.268533	0.270987	0.305216	0	0	-0.440985	0.268631	-0.1129	0.407863	-0.423935	0.05137	1.10084	0.96068	0	0	0.363937	-0.268557	-0.0720742	1.09179	0.728328	0	0
0.09	-0.480777	1.2803	-0.965277	0.854143	1.89171	0.949395	0.182977	0.0765548	-0.441028	0.148164	0.146355	0	0	-0.523599	-0.208425	-0.273603	0.310837	0.303616	0	0	-0.439653	0.275317	-0.118476	0.405472	-0.426407	0.0550576	1.10162	0.953667	0	0	0.359516	-0.268644	-0.0693341	1.0946	0.749317	0	0
0.1	-0.476715	1.27684	-0.966261	0.852552	1.87671	0.948377	0.174057	0.0793789	-0.443919	0.158922	0.121056	0	0	-0.523599	-0.221126	-0.279095	0.350994	0.293924	0	0	-0.43995	0.278718	-0.118693	0.403286	-0.426252	0.0529333	1.09947	0.971705	0	0	0.358089	-0.267728	-0.0823399	1.08411	0.573247	0	0
0.11	-0.481093	1.26961	-0.964922	0.850216	1.86215	0.94836	0.163218	0.0880843	-0.44443	0.162609	0.0645721	0	0	-0.523599	-0.236364	-0.289147	0.39708	0.279196	0	0	-0.446334	0.283969	-0.111431	0.403222	-0.426632	0.0531516	1.09796	0.970467	0	0	0.355656	-0.267088	-0.0827587	1.08412	0.566095	0	0
0.12	-0.500155	1.26274	-0.964353	0.846685	1.84747	0.94927	0.161383	0.0989527	-0.435777	0.183676	0.0120155	0	0	-0.523599	-0.246676	-0.302358	0.444559	0.25664	0	0	-0.45426	0.287056	-0.088653	0.401915	-0.424771	0.0486758	1.09789	0.935532	0	0	0.349063	-0.263797	-0.0671978	1.09808	0.828198	0	0
0.13	-0.512879	1.24616	-0.96592	0.84334	1.83294	0.952193	0.144726	0.112301	-0.432665	0.201744	-0.0202878	0	0	-0.523599	-0.26927	-0.317334	0.494016	0.224523	0	0	-0.473019	0.295824	-0.0701685	0.407967	-0.427127	0.0633247	1.09282	0.939755	0	0	0.345468	-0.261809	-0.0726385	1.09553	0.799707	0	0
0.14	-0.54683	1.24467	-0.952735	0.840101	1.81915	0.954136	0.154657	0.119075	-0.428177	0.243951	-0.0164497	0	0	-0.507734	-0.281388	-0.326658	0.561712	0.176316	0	0	-0.477121	0.300885	-0.0498157	0.414811	-0.429407	0.0749554	1.08681	0.947067	0	0	0.344635	-0.256125	-0.102183	1.07405	0.504153	0	0
0.15	-0.565097	1.24411	-0.951544	0.837528	1.8053	0.956338	0.160688	0.119997	-0.424571	0.286365	-0.00465565	0	0	-0.482122	-0.289132	-0.32557	0.631058	0.119996	0	0	-0.481413	0.302293	-0.0348728	0.421112	-0.431218	0.0870951	1.08086	0.945246	0	0	0.341645	-0.253447	-0.106841	1.06845	0.507211	0	0
0.16	-0.571949	1.24298	-0.957481	0.835269	1.79157	0.95868	0.158739	0.120259	-0.41793	0.315815	-0.00384456	0	0	-0.454035	-0.295285	-0.315556	0.702683	0.0606146	0	0	-0.487176	0.301799	-0.0244812	0.425998	-0.432109	0.0968056	1.07585	0.947625	0	0	0.339478	-0.253354	-0.108671	1.06321	0.510415	0	0
0.17	-0.572985	1.24128	-0.966189	0.832954	1.77811	0.960994	0.149849	0.12248	-0.407048	0.330262	-0.0146566	0	0	-0.422716	-0.301004	-0.299156	0.776311	8.84253e-06	0	0	-0.494066	0.299937	-0.016165	0.428128	-0.43195	0.1016	1.07425	0.951253	0	0	0.337751	-0.255358	-0.108663	1.06047	0.513844	0	0
0.18	-0.571385	1.23949	-0.975547	0.830512	1.76497	0.963214	0.136753	0.126657	-0.394142	0.334253	-0.0310353	0	0	-0.388334	-0.306149	-0.279368	0.849349	-0.0634039	0	0	-0.501448	0.296973	-0.0082722	0.427559	-0.431117	0.102803	1.07704	0.950643	0	0	0.336083	-0.2582	-0.108308	1.06118	0.515352	0	0
0.19	-0.567052	1.23784	-0.986268	0.828011	1.75202	0.965352	0.120922	0.131621	-0.380521	0.331954	-0.0494637	0	0	-0.35337	-0.30941	-0.257952	0.917149	-0.127736	0	0	-0.508727	0.292679	-0.000255242	0.424526	-0.429806	0.10022	1.08224	0.950261	0	0	0.334812	-0.260724	-0.108433	1.06399	0.509018	0	0
0.2	-0.556022	1.23681	-1.00273	0.825527	1.73915	0.967494	0.103896	0.134307	-0.367855	0.329176	-0.0644632	0	0	-0.320631	-0.307838	-0.234686	0.976966	-0.179132	0	0	-0.515826	0.285479	0.00762914	0.419438	-0.428467	0.0940344	1.08741	0.954568	0	0	0.333879	-0.262967	-0.106252	1.07065	0.53702	0	0
0.21	-0.535845	1.23663	-1.0285	0.82305	1.72646	0.969779	0.0871742	0.133487	-0.352927	0.330463	-0.0690801	0	0	-0.2908	-0.300334	-0.211688	1.03107	-0.195055	0	0	-0.523321	0.274347	0.0152745	0.413954	-0.426687	0.0872478	1.09022	0.962226	0	0	0.333664	-0.265615	-0.104361	1.07733	0.545049	0	0
0.22	-0.507728	1.23598	-1.0628	0.820662	1.71396	0.972395	0.0706084	0.130458	-0.333159	0.337023	-0.0642521	0	0	-0.264652	-0.288859	-0.193071	1.07905	-0.175917	0	0	-0.532592	0.260604	0.0223963	0.409754	-0.425584	0.0828229	1.09158	0.965241	0	0	0.333076	-0.269023	-0.101786	1.08547	0.552655	0	0
0.23	-0.473653	1.23344	-1.10341	0.818485	1.70158	0.975483	0.052723	0.126119	-0.310368	0.346589	-0.056854	0	0	-0.243281	-0.275037	-0.179332	1.11855	-0.137583	0	0	-0.544394	0.2457	0.0291193	0.406959	-0.424511	0.0800849	1.09191	0.965419	0	0	0.33261	-0.272434	-0.0988716	1.09378	0.561033	0	0
0.24	-0.435499	1.22931	-1.14781	0.816604	1.68928	0.978961	0.0331349	0.119658	-0.289235	0.356639	-0.0496687	0	0	-0.225387	-0.258927	-0.168192	1.14877	-0.0982545	0	0	-0.557612	0.230287	0.034659	0.405153	-0.423064	0.0793505	1.09113	0.964229	0	0	0.333217	-0.2749	-0.101513	1.0958	0.498601	0	0
0.25	-0.390976	1.22403	-1.19869	0.814872	1.67709	0.98263	0.0114842	0.109467	-0.271605	0.366021	-0.0412967	0	0	-0.210195	-0.239603	-0.159571	1.17025	-0.0673466	0	0	-0.571626	0.212058	0.0400133	0.402387	-0.421046	0.0746146	1.08927	0.970341	0	0	0.335945	-0.285943	-0.0146857	1.10187	1.04992	0	0
0.26	-0.348802	1.22035	-1.24796	0.81322	1.66473	0.986232	-0.00946094	0.0975129	-0.257438	0.372159	-0.0329129	0	0	-0.193367	-0.21987	-0.154237	1.18435	-0.0463414	0	0	-0.583161	0.194733	0.0420335	0.401876	-0.417767	0.0752562	1.08705	0.968187	0	0	0.332142	-0.278589	-0.0974356	1.11003	0.588218	0	0
0.27	-0.306075	1.21443	-1.29632	0.811661	1.65254	0.989766	-0.033874	0.0846998	-0.248202	0.374622	-0.0241218	0	0	-0.177967	-0.201428	-0.150254	1.19261	-0.0336571	0	0	-0.595184	0.177089	0.0455059	0.398154	-0.415401	0.0715862	1.087	0.963053	0	0	0.336321	-0.286785	-0.0210269	1.10546	1.06898	0	0
0.28	-0.260076	1.20834	-1.34637	0.810264	1.64052	0.993228	-0.058862	0.0691967	-0.24321	0.375297	-0.0149829	0	0	-0.162349	-0.177542	-0.139869	1.19399	-0.0271292	0	0	-0.607013	0.158971	0.0458907	0.395532	-0.412146	0.0670796	1.08734	0.961339	0	0	0.338706	-0.287826	-0.0193624	1.10442	1.07106	0	0
0.29	-0.232747	1.20375	-1.3786	0.808729	1.62802	0.995845	-0.0811082	0.0601967	-0.238631	0.374331	-0.00574229	0	0	-0.143678	-0.17111	-0.148233	1.19425	-0.0219426	0	0	-0.61341	0.146559	0.0492098	0.391104	-0.410211	0.0622034	1.08916	0.965412	0	0	0.33918	-0.287456	-0.0198354	1.10258	1.07888	0	0
